<?xml version="1.0" encoding="UTF-8"?>
<svg class="bs-logo" viewBox="0 0 120 152" xmlns="http://www.w3.org/2000/svg" role="img" aria-label="BrightStar logo">
<defs><linearGradient id="bsg" x1="0" y1="0" x2="0.9" y2="1">
<stop offset="0" stop-color="#EAD79E"/><stop offset="0.5" stop-color="#C9A961"/><stop offset="1" stop-color="#A97E36"/></linearGradient></defs>
<g fill="none" stroke="url(#bsg)" stroke-width="2.1" stroke-linecap="round" stroke-linejoin="round">
<polygon points="60.0,9.0 63.6,19.0 74.3,19.4 65.9,25.9 68.8,36.1 60.0,30.2 51.2,36.1 54.1,25.9 45.7,19.4 56.4,19.0" fill="url(#bsg)" stroke="url(#bsg)" stroke-width="1.2"/>
<line x1="60" y1="6" x2="60" y2="1.5"/><line x1="47" y1="11" x2="43.5" y2="7"/><line x1="73" y1="11" x2="76.5" y2="7"/>
<path d="M60,40 C60,44 60,46 60,49"/>
<path d="M40,90 C34,68 42,52 60,50 C78,52 86,68 80,90 C78,99 71,103 70,109 L50,109 C49,103 42,99 40,90 Z"/>
<path d="M60,51 C60,58 60,66 60,73" stroke-width="1.5"/>
<path d="M44,64 q1,-7 6,-6 q1,-6 6,-4" stroke-width="1.6"/>
<path d="M76,64 q-1,-7 -6,-6 q-1,-6 -6,-4" stroke-width="1.6"/>
<path d="M48,60 q5,-4 10,-1" stroke-width="1.4"/>
<path d="M62,59 q5,-4 10,0" stroke-width="1.4"/>
<path d="M46,68 q4,-3 8,-1" stroke-width="1.4"/>
<path d="M66,68 q4,-3 8,-1" stroke-width="1.4"/>
<path d="M50,79 q3.5,-3.5 7,0"/>
<path d="M63,79 q3.5,-3.5 7,0"/>
<path d="M52,86 q8,7 16,0"/>
<path d="M48,109 q12,5 24,0"/><line x1="51" y1="114" x2="69" y2="114"/><line x1="53.5" y1="118.5" x2="66.5" y2="118.5"/>
<path d="M57,123 q3,3.5 6,0"/>
</g></svg>